<?xml version="1.0" standalone="no"?>
<!DOCTYPE svg PUBLIC "-//W3C//DTD SVG 20010904//EN"
 "http://www.w3.org/TR/2001/REC-SVG-20010904/DTD/svg10.dtd">
<svg version="1.0" xmlns="http://www.w3.org/2000/svg"
 width="500.000000pt" height="500.000000pt" viewBox="0 0 500.000000 500.000000"
 preserveAspectRatio="xMidYMid meet">
<metadata>
Created by potrace 1.14, written by Peter Selinger 2001-2017
</metadata>
<g transform="translate(0.000000,500.000000) scale(0.100000,-0.100000)"
fill="#000000" stroke="none">
<path d="M2171 4490 c-172 -220 -318 -403 -322 -406 -5 -3 -9 109 -9 250 l0
256 -120 0 -119 0 -3 -407 c-3 -379 -4 -411 -22 -443 -21 -39 -55 -83 -531
-690 -187 -239 -402 -514 -477 -610 l-136 -175 119 -8 c98 -6 125 -5 148 8 16
8 81 81 144 162 249 321 1587 2036 1619 2074 l33 41 575 -737 c1091 -1398
1185 -1518 1210 -1537 23 -16 42 -18 158 -16 l132 3 -1032 1314 c-568 723
-1037 1316 -1043 1318 -5 1 -151 -177 -324 -397z"/>
<path d="M1715 3163 c-374 -492 -681 -899 -683 -904 -2 -5 79 -9 187 -9 105 0
192 -1 193 -2 1 -2 5 -197 8 -434 l5 -431 116 -154 c64 -85 137 -181 163 -213
l46 -59 0 476 0 477 165 0 165 0 0 -689 0 -689 113 -154 c171 -232 199 -268
208 -268 5 0 9 845 9 1975 0 1086 -3 1975 -7 1974 -5 0 -314 -403 -688 -896z
m355 -513 l0 -400 -160 0 -160 0 0 199 0 198 158 201 c86 111 158 201 160 202
1 0 2 -180 2 -400z"/>
<path d="M2597 3928 c-4 -57 -10 -371 -13 -698 l-7 -595 27 -32 28 -33 144 0
144 0 0 227 0 226 26 -24 c39 -35 169 -190 183 -217 19 -36 8 -62 -88 -205
-162 -243 -410 -625 -433 -669 l-23 -43 -3 -820 c-3 -793 0 -930 18 -923 5 2
137 172 292 378 156 206 350 458 431 560 244 307 261 357 251 720 l-7 240
-163 0 -162 0 -4 -248 -3 -249 -29 -44 c-16 -24 -86 -118 -155 -208 l-126
-164 -3 328 -2 327 112 175 c62 96 127 195 143 221 59 90 40 86 430 92 189 3
346 7 349 10 5 6 -1335 1769 -1345 1770 -3 0 -9 -46 -12 -102z"/>
</g>
</svg>
